<svg width="9" height="13" viewBox="0 0 9 13" fill="none" xmlns="http://www.w3.org/2000/svg">
<path d="M4.49981 0C2.01874 0 0 2.14706 0 4.78613C0 5.4745 0.132472 6.13173 0.39354 6.73975C1.51862 9.35819 3.67571 12.1227 4.31017 12.9075C4.35771 12.9662 4.42701 13 4.49994 13C4.57287 13 4.64217 12.9662 4.6897 12.9075C5.32392 12.1228 7.48101 9.35845 8.60646 6.73975C8.86765 6.13173 9 5.4745 9 4.78613C8.99975 2.14706 6.98101 0 4.49981 0ZM4.49981 7.27205C3.21099 7.27205 2.16234 6.15675 2.16234 4.78599C2.16234 3.41511 3.21099 2.2998 4.49981 2.2998C5.78864 2.2998 6.83728 3.41511 6.83728 4.78599C6.83741 6.15675 5.78876 7.27205 4.49981 7.27205Z" fill="white"/>
</svg>
